# xmcd CD database file
#
# Track frame offsets:
#	150
#	14962
#	31512
#	51400
#	66450
#	82125
#	99812
#	114687
#	131412
#	144550
#	159087
#	176275
#
# Disc length: 2527 seconds
#
# Revision: 0
# Processed by: cddbd v1.5.1PL0 Copyright (c) Steve Scherf et al.
# Submitted via: CDex 1.51
#
DISCID=9d09dd0c
DTITLE=T.C. Cassidy - T.C. Cassidy
DYEAR=1900
DGENRE=Country
TTITLE0=I wanna be a country singer
TTITLE1=Honey Lately               
TTITLE2=I'll meet you in my dreams 
TTITLE3=Even cowgirls get the blues
TTITLE4=Heartless wind             
TTITLE5=My father's plough         
TTITLE6=Ain't no train             
TTITLE7=Heart don't break          
TTITLE8=The waterlily              
TTITLE9=Hooked on you              
TTITLE10=Girl on the run            
TTITLE11=Darlin' Billy              
EXTD=
EXTT0=
EXTT1=
EXTT2=
EXTT3=
EXTT4=
EXTT5=
EXTT6=
EXTT7=
EXTT8=
EXTT9=
EXTT10=
EXTT11=
PLAYORDER=
